<svg width="28" height="33" viewBox="0 0 28 33" fill="none" xmlns="http://www.w3.org/2000/svg">
<path d="M25.5498 32.5882C11.3156 32.6126 0.511854 19.3159 0.526871 2.15317C0.526871 1.03091 1.27437 0.117676 2.1954 0.117676H6.6003C7.42623 0.117676 8.12867 0.856381 8.25048 1.85079C8.54097 4.23546 9.1113 6.55709 9.94403 8.7447L10.1159 9.19522C10.2313 9.4984 10.2562 9.84107 10.1861 10.1641C10.116 10.4872 9.95549 10.7704 9.73213 10.9649C8.36727 12.15 7.84669 14.5346 8.90954 16.3935C10.2477 18.7341 11.9178 20.7662 13.8417 22.3945C15.3717 23.6852 17.3323 23.052 18.305 21.394C18.4647 21.1215 18.6978 20.9255 18.9638 20.8399C19.2298 20.7543 19.512 20.7845 19.7616 20.9252L20.1304 21.1322C21.9291 22.1469 23.8378 22.841 25.7984 23.1941C26.6159 23.3422 27.2233 24.1966 27.2233 25.2032V30.5588C27.2233 30.8255 27.1801 31.0896 27.0961 31.3359C27.0122 31.5823 26.8891 31.8061 26.734 31.9945C26.5789 32.183 26.3947 32.3325 26.1921 32.4343C25.9895 32.5362 25.7723 32.5885 25.5531 32.5882H25.5498Z" fill="#00ADEF"/>
</svg>
