<svg width="27" height="24" viewBox="0 0 27 24" fill="none" xmlns="http://www.w3.org/2000/svg">
<path d="M5.40464 20.5968C5.30892 20.5546 5.23858 20.5068 5.35159 20.4122C5.42078 20.3598 5.49573 20.3119 5.57069 20.2641C6.27065 19.8151 6.92795 19.324 7.36154 18.6005C7.72478 17.9989 7.66597 17.6445 7.21163 17.2013C4.677 14.6969 3.56536 11.7025 4.12118 8.16458C4.43599 6.16832 5.36082 4.44096 6.7077 2.94148C7.52067 2.03337 8.48701 1.29844 9.54561 0.686575C9.61018 0.650114 9.70013 0.63872 9.71166 0.544148C9.68975 0.491735 9.65285 0.507687 9.62056 0.507687C7.81934 0.507687 6.01811 0.471225 4.22265 0.517942C2.501 0.570355 1.01574 1.88524 1.0215 3.77098C1.03188 9.27893 1.0215 14.788 1.0215 20.3017C1.0215 22.0131 2.34186 23.4442 4.06813 23.508C5.52687 23.5661 6.98676 23.5182 8.45127 23.5137C8.55851 23.5194 8.6646 23.5239 8.77184 23.5239H16.4899C18.4145 23.5239 20.338 23.5342 22.2626 23.5239C24.0477 23.5239 25.496 22.0985 25.496 20.3393V20.3074V17.2173C25.496 17.1432 25.5225 17.0646 25.4741 16.9848C25.3784 16.9905 25.3403 17.0691 25.2873 17.1227C24.2506 18.1527 23.026 18.9822 21.6848 19.5679C18.3972 20.999 15.0519 21.0993 11.6582 19.9484C11.3641 19.8425 11.0436 19.8322 10.7391 19.9063C10.2905 20.0168 9.84658 20.149 9.40262 20.2812C8.0984 20.6811 6.76651 20.86 5.40464 20.5968ZM9.27923 11.6968C9.37033 11.5806 9.41876 11.5122 9.47181 11.4438C10.1718 10.5676 10.8717 9.69026 11.5729 8.80835C11.7758 8.5554 11.9788 8.29561 12.1079 7.99025C12.2578 7.64159 12.0975 7.31457 11.7343 7.18696C11.574 7.1391 11.4033 7.11859 11.2315 7.12885C10.2802 7.12315 9.32305 7.12315 8.3717 7.12885C8.23793 7.12885 8.10417 7.1448 7.97617 7.1767C7.67635 7.25077 7.4953 7.55157 7.57026 7.85238C7.6233 8.05292 7.78359 8.2113 7.9877 8.25915C8.1157 8.29106 8.24946 8.30701 8.38323 8.30131C8.96096 8.30701 9.5433 8.30131 10.1199 8.30701C10.1845 8.30701 10.264 8.26485 10.3125 8.35942C10.264 8.42323 10.2167 8.4859 10.1683 8.54401C9.34035 9.5786 8.517 10.62 7.68788 11.6546C7.48492 11.9133 7.37768 12.1981 7.52759 12.516C7.6775 12.8339 7.98193 12.8909 8.29213 12.9125C8.53775 12.9285 8.78914 12.9182 9.04053 12.9182C9.90655 12.9182 10.7668 12.9239 11.6328 12.9125C12.0929 12.9068 12.3385 12.6322 12.2901 12.2107C12.2532 11.8779 12.0226 11.7036 11.5948 11.6979C10.8394 11.6922 10.0864 11.6968 9.27923 11.6968ZM15.4797 8.91888C14.8121 8.34347 14.074 8.30587 13.3522 8.72859C12.4758 9.23563 12.1552 10.0651 12.2613 11.0257C12.3628 11.9235 12.7583 12.6573 13.7096 12.9581C14.3024 13.1484 14.8536 13.08 15.3402 12.6892C15.4682 12.5889 15.5063 12.6095 15.5962 12.7211C15.7726 12.9433 16.0771 13.0276 16.3446 12.9274C16.6121 12.8476 16.7886 12.6049 16.7886 12.3303C16.7943 11.2741 16.7989 10.2178 16.7886 9.16157C16.7828 8.73885 16.3827 8.46994 15.9652 8.55426C15.7357 8.60212 15.6077 8.75594 15.4797 8.91888ZM19.1837 10.8787C19.1618 12.1993 20.2688 13.1974 21.6583 13.0595C22.936 12.933 23.764 11.9873 23.7213 10.6508C23.6787 9.33021 22.6846 8.42779 21.3216 8.46994C20.0439 8.50754 19.141 9.52163 19.1837 10.8787ZM18.7132 9.82813C18.7132 8.99863 18.7189 8.17483 18.7132 7.34534C18.7132 6.92261 18.441 6.65827 18.034 6.66397C17.6384 6.66966 17.3767 6.93287 17.3709 7.33964C17.3651 7.58803 17.3709 7.83073 17.3709 8.07912V12.2779C17.3709 12.6049 17.5739 12.8909 17.8414 12.9593C18.2104 13.0595 18.5898 12.843 18.6855 12.4784C18.7016 12.4146 18.712 12.3519 18.7074 12.2836C18.7189 11.4643 18.7132 10.6462 18.7132 9.82813Z" fill="#FDFEFE"/>
<path d="M8.44734 23.517C6.9886 23.517 5.5241 23.5648 4.06421 23.5113C2.33794 23.4429 1.01758 22.0118 1.01758 20.305C1.01758 14.797 1.02796 9.2879 1.01758 3.77425C1.01758 1.88851 2.5086 0.573618 4.22449 0.525762C6.01995 0.477906 7.82118 0.515507 9.6224 0.515507C9.65469 0.515507 9.69735 0.499555 9.7135 0.551969C9.70312 0.646541 9.60625 0.657935 9.54744 0.694396C8.49 1.30854 7.52251 2.04233 6.70954 2.95159C5.36842 4.45106 4.43783 6.17273 4.12302 8.17469C3.5672 11.708 4.6846 14.7081 7.21231 17.2114C7.66089 17.6604 7.7197 18.009 7.36222 18.6106C6.92979 19.3342 6.27134 19.8253 5.57138 20.2742C5.49642 20.3163 5.42147 20.3688 5.34651 20.4166C5.23466 20.5112 5.30384 20.559 5.39956 20.6012C5.42147 20.6491 5.44799 20.6912 5.48028 20.7334C6.09491 21.2723 6.67725 21.8477 7.2815 22.3969C7.56518 22.6556 7.8477 22.9256 8.121 23.1945C8.23285 23.2948 8.42081 23.3267 8.44734 23.517Z" fill="#0180C7"/>
<path d="M8.44622 23.5172C8.4197 23.3326 8.23289 23.3007 8.11988 23.1902C7.84773 22.9156 7.56406 22.6512 7.28038 22.3926C6.67613 21.8434 6.09379 21.268 5.47916 20.729C5.44687 20.6868 5.42035 20.6447 5.39844 20.5968C6.76146 20.8612 8.0922 20.6811 9.40218 20.2858C9.84615 20.1536 10.289 20.0214 10.7387 19.9109C11.0431 19.8311 11.3637 19.8471 11.6577 19.9531C15.0469 21.1039 18.3922 20.999 21.6844 19.5725C23.0255 18.9868 24.2502 18.1619 25.2869 17.133C25.3399 17.0806 25.378 17.0008 25.4737 16.9951C25.5221 17.0692 25.4956 17.1478 25.4956 17.2276V20.3177C25.506 22.0815 24.0737 23.5183 22.2887 23.5343H22.2621C20.3375 23.5445 18.4141 23.5343 16.4895 23.5343H8.7668C8.65955 23.5217 8.55346 23.5172 8.44622 23.5172Z" fill="#0172B1"/>
<path d="M9.28014 11.6965C10.0873 11.6965 10.8461 11.6908 11.6003 11.6965C12.0223 11.7022 12.2518 11.8765 12.2956 12.2092C12.3441 12.6262 12.0984 12.9065 11.6383 12.9111C10.7723 12.9213 9.91207 12.9168 9.04605 12.9168C8.79466 12.9168 8.54904 12.927 8.29765 12.9111C7.98745 12.8951 7.68302 12.8313 7.53311 12.5146C7.3832 12.1978 7.49044 11.913 7.6934 11.6532C8.51675 10.6186 9.34472 9.57715 10.1738 8.54256C10.2223 8.47875 10.2695 8.41608 10.318 8.35797C10.2649 8.26796 10.19 8.31012 10.1254 8.30556C9.54767 8.29986 8.96533 8.30556 8.38875 8.29986C8.25498 8.29986 8.12122 8.28391 7.99322 8.2577C7.68879 8.18934 7.50197 7.88853 7.57116 7.59228C7.6196 7.39175 7.77988 7.22767 7.98284 7.17981C8.11084 7.14791 8.24461 7.13196 8.37837 7.13196C9.32972 7.12626 10.2868 7.12626 11.2382 7.13196C11.4089 7.12626 11.5749 7.14791 11.741 7.19007C12.1042 7.31199 12.2599 7.6447 12.1146 7.99336C11.9866 8.29417 11.7836 8.55281 11.5795 8.81146C10.8796 9.69337 10.1796 10.5696 9.47848 11.4412C9.41852 11.5119 9.36547 11.5802 9.28014 11.6965Z" fill="#0180C7"/>
<path d="M15.4806 8.91939C15.6086 8.75532 15.7424 8.60263 15.9615 8.56047C16.3835 8.47616 16.7791 8.74506 16.7848 9.16779C16.801 10.224 16.7952 11.2803 16.7848 12.3365C16.7848 12.6111 16.6026 12.8538 16.3409 12.9336C16.0733 13.0338 15.7689 12.9552 15.5925 12.7273C15.5014 12.6168 15.4645 12.5952 15.3365 12.6954C14.8499 13.0863 14.2998 13.1546 13.7059 12.9643C12.7546 12.6578 12.3648 11.924 12.2576 11.0319C12.1457 10.0656 12.4709 9.24185 13.3484 8.73481C14.0749 8.30752 14.8118 8.34398 15.4806 8.91939ZM13.5883 10.8473C13.5987 11.0797 13.6736 11.3019 13.8132 11.4865C14.1015 11.8671 14.6527 11.9457 15.0424 11.6608C15.107 11.613 15.1658 11.5549 15.2189 11.4865C15.5187 11.0854 15.5187 10.4246 15.2189 10.0235C15.069 9.81726 14.8337 9.69648 14.5823 9.69078C13.9942 9.65432 13.5825 10.1033 13.5883 10.8473ZM19.1846 10.8792C19.1419 9.52215 20.0448 8.50806 21.3283 8.47046C22.6913 8.4283 23.6853 9.33186 23.728 10.6513C23.7706 11.9879 22.9427 12.9324 21.665 13.06C20.2697 13.1979 19.1626 12.1998 19.1846 10.8792ZM20.5257 10.7527C20.5153 11.0171 20.5949 11.2757 20.7551 11.4922C21.0492 11.8728 21.5993 11.9468 21.9844 11.6506C22.0432 11.6084 22.0917 11.556 22.1389 11.5025C22.4491 11.1014 22.4491 10.4246 22.1447 10.0235C21.9948 9.82295 21.7595 9.69648 21.5082 9.69078C20.9327 9.65888 20.5257 10.0919 20.5257 10.7527ZM18.7141 9.82865C18.7141 10.6468 18.7198 11.466 18.7141 12.2841C18.7198 12.659 18.42 12.9712 18.0406 12.9814C17.9761 12.9814 17.9069 12.9757 17.8423 12.9598C17.5748 12.8914 17.3718 12.6111 17.3718 12.2784V8.07964C17.3718 7.83124 17.366 7.58855 17.3718 7.34015C17.3776 6.93338 17.6393 6.66904 18.0349 6.66904C18.4408 6.66334 18.7141 6.92768 18.7141 7.35041C18.7198 8.17535 18.7141 9.00485 18.7141 9.82865Z" fill="#0180C7"/>
<path d="M13.5889 10.8469C13.5832 10.1017 13.9948 9.6528 14.5772 9.6847C14.8286 9.69495 15.0638 9.81687 15.2137 10.0231C15.5135 10.4196 15.5135 11.085 15.2137 11.4861C14.9254 11.8667 14.3742 11.9453 13.9845 11.6605C13.9199 11.6126 13.8611 11.5545 13.808 11.4861C13.6743 11.3015 13.5993 11.0794 13.5889 10.8469ZM20.5263 10.7523C20.5263 10.0972 20.9322 9.65963 21.5099 9.6904C21.7613 9.69609 21.9966 9.82257 22.1465 10.0231C22.4509 10.4242 22.4509 11.1056 22.1407 11.5021C21.8409 11.8769 21.2851 11.9408 20.9057 11.6445C20.8469 11.6023 20.7984 11.5499 20.7558 11.4918C20.5966 11.2753 20.5217 11.0167 20.5263 10.7523Z" fill="#FDFEFE"/>
<path d="M4.5184 0.532959H22.0556C23.9744 0.532959 25.53 2.07004 25.53 3.96603V19.968C25.53 21.864 23.9744 23.4011 22.0556 23.4011H4.5184C2.59955 23.4011 1.04395 21.864 1.04395 19.968V3.96603C1.04395 2.07004 2.59955 0.532959 4.5184 0.532959Z" stroke="#0180C7" stroke-miterlimit="54.3289"/>
</svg>
