<svg width="60" height="60" viewBox="0 0 60 60" fill="none" xmlns="http://www.w3.org/2000/svg">
<rect width="60" height="60" rx="12" fill="#189DD8"/>
<path d="M19 41.3438C18.8102 41.3438 18.6563 41.4976 18.6563 41.6875V41.9469C18.6563 43.1306 17.6932 44.0937 16.5095 44.0937H16.2501C16.0602 44.0937 15.9064 44.2476 15.9064 44.4374C15.9064 45.3851 15.1353 46.1561 14.1876 46.1561C13.2399 46.1561 12.4689 45.3851 12.4689 44.4374C12.4689 44.2476 12.3151 44.0937 12.1252 44.0937H11.8655C10.6818 44.0937 9.71873 43.1306 9.71873 41.9469V41.6875C9.71873 41.4976 9.56486 41.3438 9.37502 41.3438C9.18518 41.3438 9.03131 41.4976 9.03131 41.6875V41.9469C9.03131 43.4897 10.2705 44.7486 11.8057 44.7807C11.9726 45.9455 12.9772 46.8437 14.1876 46.8437C15.3979 46.8437 16.4025 45.9455 16.5694 44.7806C18.1046 44.7485 19.3438 43.4897 19.3438 41.9469V41.6875C19.3437 41.4976 19.1898 41.3438 19 41.3438Z" fill="white"/>
<path d="M34.8122 41.3438C34.6224 41.3438 34.4685 41.4976 34.4685 41.6875V41.9469C34.4685 43.1306 33.5054 44.0937 32.3217 44.0937H32.0623C31.8724 44.0937 31.7185 44.2476 31.7185 44.4374C31.7185 45.3851 30.9475 46.1561 29.9998 46.1561C29.0521 46.1561 28.2811 45.3851 28.2811 44.4374C28.2811 44.2476 28.1272 44.0937 27.9374 44.0937H27.678C26.4943 44.0937 25.5312 43.1306 25.5312 41.9469V41.6875C25.5312 41.4976 25.3773 41.3438 25.1875 41.3438C24.9976 41.3438 24.8438 41.4976 24.8438 41.6875V41.9469C24.8438 43.4897 26.0829 44.7486 27.6182 44.7807C27.7851 45.9455 28.7897 46.8437 30 46.8437C31.2103 46.8437 32.2149 45.9455 32.3818 44.7806C33.9171 44.7485 35.1562 43.4897 35.1562 41.9469V41.6875C35.1559 41.4976 35.002 41.3438 34.8122 41.3438Z" fill="white"/>
<path d="M50.6247 41.3438C50.4349 41.3438 50.281 41.4976 50.281 41.6875V41.9469C50.281 43.1306 49.3179 44.0937 48.1342 44.0937H47.8748C47.6849 44.0937 47.531 44.2476 47.531 44.4374C47.531 45.3851 46.76 46.1561 45.8123 46.1561C44.8646 46.1561 44.0936 45.3851 44.0936 44.4374C44.0936 44.2476 43.9397 44.0937 43.7499 44.0937H43.4905C42.3068 44.0937 41.3437 43.1306 41.3437 41.9469V41.6875C41.3437 41.4976 41.1898 41.3438 41 41.3438C40.8101 41.3438 40.6562 41.4976 40.6562 41.6875V41.9469C40.6562 43.4897 41.8954 44.7486 43.4307 44.7807C43.5976 45.9455 44.6022 46.8437 45.8125 46.8437C47.0228 46.8437 48.0274 45.9455 48.1943 44.7806C49.7296 44.7485 50.9687 43.4897 50.9687 41.9469V41.6875C50.9684 41.4976 50.8145 41.3438 50.6247 41.3438Z" fill="white"/>
<path d="M50.9688 24.8437H39.4299C38.666 24.8437 37.8959 24.7802 37.1431 24.6547L34.861 24.2746C34.6418 24.2381 34.4238 24.3489 34.3262 24.5485C33.5437 26.1483 31.9005 27.2499 30 27.2499C28.0995 27.2499 26.4563 26.1482 25.6738 24.5484C25.5762 24.3488 25.3582 24.238 25.139 24.2745L22.8569 24.6547C22.1041 24.7802 21.3341 24.8437 20.5701 24.8437H9.03121C8.42974 24.8437 7.9474 25.3605 8.00461 25.9737C8.05451 26.5082 8.52423 26.9062 9.06108 26.9062H13.9751L15.0063 28.9688H10.0625C9.87268 28.9688 9.71881 29.1226 9.71881 29.3125C9.71881 29.5023 9.87268 29.6562 10.0625 29.6562H15.5616C15.562 29.6562 15.5624 29.6563 15.5628 29.6563C15.5631 29.6563 15.5633 29.6562 15.5635 29.6562H44.4365C44.4367 29.6562 44.437 29.6563 44.4372 29.6563C44.4376 29.6563 44.438 29.6562 44.4384 29.6562H49.9376C50.1274 29.6562 50.2813 29.5023 50.2813 29.3125C50.2813 29.1226 50.1274 28.9688 49.9376 28.9688H44.9937L46.0249 26.9062H50.9389C51.4758 26.9062 51.9455 26.5083 51.9954 25.9737C52.0526 25.3605 51.5703 24.8437 50.9688 24.8437ZM29.6563 28.9688H15.7749L14.7437 26.9062H25.6714C26.1818 27.7596 27.0937 28.2812 28.1 28.2812H29.6563V28.9688ZM44.2251 28.9688H30.3438V28.2812H31.9001C32.9064 28.2812 33.8182 27.7596 34.3287 26.9062H45.2564L44.2251 28.9688Z" fill="white"/>
<path d="M11.4379 39.9687C11.6136 39.9687 11.7636 39.8345 11.7799 39.6561L12.4674 32.0936C12.4845 31.9046 12.3453 31.7373 12.1562 31.7201C11.9674 31.7024 11.7999 31.8423 11.7827 32.0313L11.0952 39.5938C11.0781 39.7828 11.2173 39.9501 11.4064 39.9673C11.417 39.9683 11.4275 39.9687 11.4379 39.9687Z" fill="white"/>
<path d="M16.937 39.9688C16.9475 39.9688 16.958 39.9684 16.9686 39.9674C17.1576 39.9502 17.2969 39.7829 17.2797 39.5939L16.5922 32.0314C16.575 31.8423 16.4077 31.7018 16.2187 31.7203C16.0297 31.7374 15.8903 31.9047 15.9076 32.0937L16.5951 39.6562C16.6114 39.8347 16.7613 39.9688 16.937 39.9688Z" fill="white"/>
<path d="M14.5312 41.6875V30.6875C14.5312 30.4976 14.3774 30.3438 14.1875 30.3438C13.9977 30.3438 13.8438 30.4976 13.8438 30.6875V41.6875C13.8438 41.8773 13.9977 42.0312 14.1875 42.0312C14.3774 42.0312 14.5312 41.8773 14.5312 41.6875Z" fill="white"/>
<path d="M27.2504 39.9687C27.4261 39.9687 27.5761 39.8345 27.5924 39.6561L28.2799 32.0936C28.297 31.9046 28.1578 31.7373 27.9687 31.7201C27.7794 31.7024 27.6124 31.8423 27.5952 32.0313L26.9077 39.5938C26.8906 39.7828 27.0298 39.9501 27.2189 39.9673C27.2294 39.9683 27.24 39.9687 27.2504 39.9687Z" fill="white"/>
<path d="M32.7496 39.9688C32.7601 39.9688 32.7706 39.9684 32.7811 39.9674C32.9702 39.9502 33.1095 39.7829 33.0923 39.5939L32.4048 32.0314C32.3876 31.8423 32.2204 31.7018 32.0313 31.7203C31.8422 31.7374 31.7029 31.9047 31.7201 32.0937L32.4076 39.6562C32.4239 39.8347 32.5739 39.9688 32.7496 39.9688Z" fill="white"/>
<path d="M30.3438 41.6875V30.6875C30.3438 30.4976 30.1899 30.3438 30.0001 30.3438C29.8102 30.3438 29.6564 30.4976 29.6564 30.6875V41.6875C29.6564 41.8773 29.8102 42.0312 30.0001 42.0312C30.1898 42.0313 30.3438 41.8773 30.3438 41.6875Z" fill="white"/>
<path d="M43.063 39.9687C43.2387 39.9687 43.3886 39.8345 43.4049 39.6561L44.0924 32.0936C44.1096 31.9046 43.9704 31.7373 43.7813 31.7201C43.5922 31.7024 43.425 31.8423 43.4078 32.0313L42.7203 39.5938C42.7031 39.7828 42.8424 39.9501 43.0314 39.9673C43.042 39.9683 43.0525 39.9687 43.063 39.9687Z" fill="white"/>
<path d="M48.5621 39.9688C48.5726 39.9688 48.5831 39.9684 48.5936 39.9674C48.7827 39.9502 48.922 39.7829 48.9048 39.5939L48.2173 32.0314C48.2001 31.8423 48.0325 31.7018 47.8438 31.7203C47.6547 31.7374 47.5154 31.9047 47.5326 32.0937L48.2201 39.6562C48.2364 39.8347 48.3864 39.9688 48.5621 39.9688Z" fill="white"/>
<path d="M46.1562 41.6875V30.6875C46.1562 30.4976 46.0024 30.3438 45.8125 30.3438C45.6227 30.3438 45.4688 30.4976 45.4688 30.6875V41.6875C45.4688 41.8773 45.6227 42.0312 45.8125 42.0312C46.0024 42.0313 46.1562 41.8773 46.1562 41.6875Z" fill="white"/>
<path d="M21.75 23.4687H25.6516C25.7074 23.7042 25.7822 23.9328 25.8733 24.152C26.5471 25.7676 28.1429 26.9063 30 26.9063C31.8571 26.9063 33.4529 25.7676 34.1267 24.152C34.2178 23.9328 34.2926 23.7042 34.3484 23.4687H38.25C38.8189 23.4687 39.2812 23.0064 39.2812 22.4375C39.2812 21.8686 38.8189 21.4063 38.25 21.4063H34.3484C34.0605 20.1912 33.275 19.1668 32.2206 18.5609C32.2188 18.5394 32.2154 18.5171 32.2119 18.4956L32.1243 17.9688H34.8124C35.0023 17.9688 35.1561 17.815 35.1561 17.6251C35.1561 17.4352 35.0022 17.2814 34.8124 17.2814H32.0099L31.8621 16.3953C31.7487 15.7138 31.1644 15.2189 30.4734 15.2189H30.3436V13.5C30.3436 13.31 30.1897 13.1562 29.9999 13.1562C29.81 13.1562 29.6562 13.31 29.6562 13.5V15.2187H29.5264C28.8355 15.2187 28.2511 15.7136 28.1377 16.3951L27.9899 17.2812H25.1875C24.9975 17.2812 24.8437 17.435 24.8437 17.6249C24.8437 17.8148 24.9975 17.9686 25.1875 17.9686H27.8756L27.7879 18.4955C27.7845 18.517 27.781 18.5393 27.7793 18.5608C26.7248 19.1666 25.9393 20.191 25.6514 21.4061H21.7498C21.1809 21.4061 20.7186 21.8685 20.7186 22.4374C20.7187 23.0064 21.1811 23.4687 21.75 23.4687ZM32.3091 22.2145L32.7921 22.0937H34.4559H38.25C38.4399 22.0937 38.5937 22.2475 38.5937 22.4374C38.5937 22.6274 38.4399 22.7812 38.25 22.7812H34.4559H32.7921L32.3091 22.6604C32.3169 22.5866 32.3203 22.5129 32.3203 22.4374C32.3203 22.3619 32.3169 22.2882 32.3091 22.2145ZM31.8915 23.779C31.4712 24.3712 30.7803 24.7578 30 24.7578C29.2197 24.7578 28.5288 24.3711 28.1085 23.779C28.0088 23.6393 27.9254 23.4875 27.8585 23.327L28.4488 23.1792C28.7264 23.7567 29.3176 24.1563 30 24.1563C30.6824 24.1563 31.2736 23.7567 31.5512 23.1792L32.1415 23.327C32.0746 23.4874 31.9912 23.6392 31.8915 23.779ZM28.9688 22.4375C28.9688 22.227 29.0315 22.0319 29.1407 21.8686C29.3246 21.5902 29.6417 21.4063 30.0001 21.4063C30.3584 21.4063 30.6756 21.5902 30.8595 21.8686C30.9686 22.0319 31.0314 22.227 31.0314 22.4375C31.0314 22.6481 30.9687 22.8432 30.8595 23.0064C30.6756 23.2848 30.3585 23.4687 30.0001 23.4687C29.6417 23.4687 29.3246 23.2848 29.1407 23.0064C29.0315 22.8432 28.9688 22.6481 28.9688 22.4375ZM28.4661 18.6081L28.5314 18.2171L28.5726 17.9688L28.687 17.2813L28.8159 16.5078C28.8743 16.1589 29.1725 15.9063 29.5265 15.9063H29.6563H30.3438H30.4735C30.8276 15.9063 31.1258 16.1589 31.1842 16.5078L31.3131 17.2813L31.4274 17.9688L31.4687 18.2171L31.534 18.6081C31.5649 18.7921 31.5134 18.9785 31.3931 19.1203C31.2728 19.2621 31.0975 19.3438 30.911 19.3438H29.0891C28.9026 19.3438 28.7273 19.2621 28.607 19.1203C28.4866 18.9785 28.4351 18.7921 28.4661 18.6081ZM30 20.1172C30.9642 20.1172 31.7929 20.7089 32.1424 21.5478L31.5512 21.6958C31.2736 21.1183 30.6824 20.7186 30 20.7186C29.3176 20.7186 28.7264 21.1183 28.4488 21.6958L27.8576 21.5478C28.2071 20.7089 29.0357 20.1172 30 20.1172ZM21.75 22.0937H25.5441H27.2079L27.6909 22.2145C27.6831 22.2883 27.6797 22.362 27.6797 22.4375C27.6797 22.513 27.6831 22.5868 27.6909 22.6605L27.2079 22.7813H25.5441H21.75C21.5601 22.7813 21.4063 22.6275 21.4063 22.4376C21.4063 22.2477 21.5601 22.0937 21.75 22.0937Z" fill="white"/>
</svg>
